<svg width="1920" height="1080" viewBox="0 0 1920 1080" xmlns="http://www.w3.org/2000/svg">
  <defs>
    <linearGradient id="bg" x1="960" y1="80" x2="960" y2="1080" gradientUnits="userSpaceOnUse">
      <stop offset="0" stop-color="#2d3646"/>
      <stop offset="0.48" stop-color="#1f2633"/>
      <stop offset="1" stop-color="#0b0f15"/>
    </linearGradient>
    <radialGradient id="torch" cx="50%" cy="30%" r="45%">
      <stop offset="0" stop-color="#dcbf94" stop-opacity="0.48"/>
      <stop offset="1" stop-color="#dcbf94" stop-opacity="0"/>
    </radialGradient>
    <linearGradient id="stone" x1="0" y1="0" x2="0" y2="1">
      <stop offset="0" stop-color="#445166" stop-opacity="0.8"/>
      <stop offset="1" stop-color="#1c2534" stop-opacity="0.92"/>
    </linearGradient>
  </defs>
  <rect width="1920" height="1080" fill="url(#bg)"/>
  <ellipse cx="960" cy="360" rx="680" ry="300" fill="url(#torch)"/>

  <g fill="url(#stone)">
    <rect x="170" y="120" width="240" height="700" rx="22"/>
    <rect x="1510" y="120" width="240" height="700" rx="22"/>
    <rect x="560" y="160" width="800" height="560" rx="24"/>
  </g>

  <g fill="#111927" fill-opacity="0.86">
    <path d="M650 720L820 430H1100L1270 720H650Z"/>
    <rect x="770" y="360" width="60" height="360"/>
    <rect x="1090" y="360" width="60" height="360"/>
  </g>

  <g fill="#202b3a" fill-opacity="0.72">
    <circle cx="960" cy="430" r="170"/>
    <circle cx="960" cy="430" r="126" fill="#151e2a"/>
  </g>

  <g fill="#0a0d13" fill-opacity="0.9">
    <path d="M0 780L390 700L560 1080H0V780Z"/>
    <path d="M1920 760L1500 690L1340 1080H1920V760Z"/>
  </g>
</svg>
